<svg xmlns="http://www.w3.org/2000/svg" viewBox="-275 367 60 60"><path d="M-270.6 397.8l22 15c.3.2.7.2 1 .1.3-.2.5-.5.5-.9v-13.1l20.4 13.9c.3.2.7.2 1 .1.3-.2.5-.5.5-.9v-30c0-.4-.2-.7-.5-.9-.1-.1-.3-.1-.5-.1s-.4.1-.6.2l-20.4 13.9V382c0-.4-.2-.7-.5-.9-.1-.1-.3-.1-.5-.1s-.4.1-.6.2l-22 15c-.3.2-.4.5-.4.8s.4.6.6.8zm43.6-13.9v26.2l-19.2-13.1 19.2-13.1zm-22 0v26.2l-19.2-13.1 19.2-13.1z"/><path d="M-245 427c16.5 0 30-13.5 30-30s-13.5-30-30-30-30 13.5-30 30 13.5 30 30 30zm0-58c15.4 0 28 12.6 28 28s-12.6 28-28 28-28-12.6-28-28 12.6-28 28-28z"/></svg>